<svg width="70" height="70" viewBox="0 0 70 70" fill="none" xmlns="http://www.w3.org/2000/svg">
<path d="M31.5004 67.7C30.5004 66.1 30.2004 64.6 30.7004 63.7C32.2004 61 41.1004 54 42.9004 54C45.4004 54 52.3004 61.7 51.6004 63.7C51.3004 64.5 51.0004 65.3 51.0004 65.6C51.0004 66.5 43.7004 68.9 38.7004 69.5C33.5004 70.2 33.1004 70 31.5004 67.7Z" fill="white"/>
<path d="M11.8 60.7996C9.3 58.3996 5.9 53.9996 4.4 50.9996C1.8 45.9996 1.5 44.5996 1.5 34.9996C1.5 25.7996 1.8 23.8996 4 19.4996C7.3 12.7996 13.9 6.39961 20.8 3.19961C25.5 0.999609 27.9 0.599609 35 0.599609C50.8 0.599609 61.4 8.09961 67.1 23.0996C71.9 35.6996 67.9 54.3996 60.8 52.6996C58.5 52.0996 57.7 50.2996 52.9 36.2996C46.5 17.6996 44.4 14.7996 39.7 18.1996C38.8 18.8996 34.5 29.5996 30.2 41.9996C22.5 64.2996 22.4 64.4996 19.4 64.7996C17 64.9996 15.4 64.1996 11.8 60.7996Z" fill="white"/>
</svg>
